<svg id="Layer_1" data-name="Layer 1" xmlns="http://www.w3.org/2000/svg" viewBox="0 0 46.6 39.2">
  <title>search</title>
  <g>
    <circle cx="16.5" cy="16.5" r="13.5" fill="#fff"/>
    <path d="M123.5,72A10.5,10.5,0,1,1,113,82.5,10.5,10.5,0,0,1,123.5,72m0-6A16.5,16.5,0,1,0,140,82.5,16.5,16.5,0,0,0,123.5,66Z" transform="translate(-107 -66)"/>
  </g>
  <g>
    <polygon points="43.6 36.2 28.5 24.7 43.6 36.2 43.6 36.2" fill="#fff"/>
    <path d="M135.5,87.7a3,3,0,0,0-1.9,5.4l15.2,11.5a2.8,2.8,0,0,0,1.8.6A3,3,0,0,0,153,104a3,3,0,0,0-.6-4.2L137.3,88.3a3.2,3.2,0,0,0-1.8-.6Z" transform="translate(-107 -66)"/>
  </g>
</svg>
